<svg xmlns="http://www.w3.org/2000/svg" viewBox="0 0 24 24" fill="none" stroke="currentColor" stroke-width="2.5" stroke-linecap="round" stroke-linejoin="round"><path d="M9 3c-1 .5-2 2-2 4 0 1 .3 2 1 2.5" />
  <path d="M15 3c1 .5 2 2 2 4 0 1-.3 2-1 2.5" />
  <path d="M7 9.5c-1.5.5-3 2-3 4 0 2 1.5 3.5 3.5 3.5" />
  <path d="M17 9.5c1.5.5 3 2 3 4 0 2-1.5 3.5-3.5 3.5" />
  <path d="M7.5 17C8 19 10 21 12 21s4-2 4.5-4" />
  <path d="M9 3c.5 1 2.5 3 3 5M15 3c-.5 1-2.5 3-3 5" />
  <path d="M12 8v4" /></svg>